PathFileType	4	(X/Y/Z)	AB10\squats_1.trc
DataRate	CameraRate	NumFrames	NumMarkers	Units	OrigDataRate	OrigDataStartFrame	OrigNumFrames
200.000000	200.000000	4	35	mm	200.000000	300	343
Frame#	Time	C7			LSHO			STRN			LASI			RASI			LPSI			RPSI			LGTR			RGTR			LTHL			LTHR			LKNE			LMKNE			LSHC			LSHL			LSHR			LANK			LMANK			LMT1			LMT5			LCAL			RTHC			RTHL			RTHR			RKNE			RMKNE			RSHC			RSHL			RSHR			RANK			RMANK			RMT1			RMT5			RCAL			LTHC			
		X1	Y1	Z1	X2	Y2	Z2	X3	Y3	Z3	X4	Y4	Z4	X5	Y5	Z5	X6	Y6	Z6	X7	Y7	Z7	X8	Y8	Z8	X9	Y9	Z9	X10	Y10	Z10	X11	Y11	Z11	X12	Y12	Z12	X13	Y13	Z13	X14	Y14	Z14	X15	Y15	Z15	X16	Y16	Z16	X17	Y17	Z17	X18	Y18	Z18	X19	Y19	Z19	X20	Y20	Z20	X21	Y21	Z21	X22	Y22	Z22	X23	Y23	Z23	X24	Y24	Z24	X25	Y25	Z25	X26	Y26	Z26	X27	Y27	Z27	X28	Y28	Z28	X29	Y29	Z29	X30	Y30	Z30	X31	Y31	Z31	X32	Y32	Z32	X33	Y33	Z33	X34	Y34	Z34	X35	Y35	Z35	

301	26.125	-3473.817883657643	1431.309201793779	2472.941064103916	-3505.25815627987	1392.177861659275	2629.994978550695	-3563.868642199356	1281.991470737665	2484.3012739764	-3431.920854307798	933.5314825078373	2614.143624506313	-3443.383607370332	922.5898808760909	2341.613303067453	-3251.989003582175	996.0828493044058	2524.685428121903	-3263.412521673587	1000.393987340141	2431.882933893	-3372.429593218939	894.9291905602259	2684.591752810497	-3360.491998505765	880.1163887417615	2276.671454715578	-3566.469913578177	701.1824962529573	2651.534183841909	-3415.077905183311	600.9579404737073	2652.226290242094	-3552.13965057006	501.0822948763363	2700.365412027417	-3569.152964919419	479.5252200731565	2572.490122704255	-3480.541160987587	308.1637755881306	2718.532772734668	-3516.519337885726	194.247543342855	2673.075672466626	-3419.182309547016	215.7480296708084	2651.575360265303	-3423.396572597914	97.79235531210998	2705.577090656773	-3452.971089689044	92.46891626552102	2620.553500767639	-3571.229093607013	64.51685459791102	2676.97480876822	-3516.039039039191	51.18089254175239	2762.81097897325	-3355.970947491387	72.46558821810865	2650.598605685158	-3440.222437070864	561.4799807014363	2360.627083623959	-3442.539577767529	712.4326386512814	2268.052256175888	-3579.625370552622	689.3838222283373	2346.097571641859	-3576.315465448125	471.1677943490238	2278.625629396972	-3588.873228936129	450.4927241680797	2399.266800397038	-3525.702077522636	200.6747604251582	2321.305216442582	-3433.500778112776	255.5555895275489	2307.110274006333	-3501.999388798496	310.7101021460138	2258.6122531894	-3416.513255068847	109.0358031598724	2270.502085163937	-3447.491153395891	102.1957032952597	2353.247389954327	-3568.74916764909	60.5160419805044	2291.705029241421	-3517.332173536907	51.79184354616471	2209.353081702074	-3351.092795425224	78.52692506519374	2319.672024041868	-3441.422250855429	738.5493936217158	2710.093888069474	
302	26.13	-3472.896507784734	1435.100215487455	2473.06610768042	-3504.471124667378	1396.071288170383	2630.150188597905	-3563.261049520967	1286.12155863572	2484.408194791274	-3433.058726969102	936.9479805664282	2614.344596333385	-3444.453496384639	926.1168845781887	2341.735960972909	-3252.904796929816	999.0483483648921	2524.891935286955	-3264.257469601536	1003.379199373748	2432.117180148529	-3373.635063802913	897.7778167639417	2684.644988397127	-3361.539124420855	883.0745771628635	2277.086409436834	-3566.202825137188	702.2811419672207	2651.64322566621	-3413.919237838359	603.3697250234368	2651.975689044588	-3550.048904465541	502.13742258997	2700.151675512768	-3567.125462377611	480.5050661289796	2572.222157112358	-3479.129680513339	308.560377881772	2718.406915613247	-3515.808810700609	194.7790195874146	2673.092961607512	-3418.376107302005	215.7250333511062	2651.52128608894	-3423.330843584967	97.78086447847809	2705.661640200719	-3452.914655679523	92.52157357367291	2620.608678297989	-3571.21188179611	64.53321071195313	2676.981709533988	-3516.036626795687	51.15175859701752	2762.813793561948	-3355.925890523776	72.45317329060343	2650.630234887215	-3438.789014951069	563.9032545947694	2361.284211657526	-3442.484909155898	714.8062599258734	2268.371102719599	-3579.328566719998	690.5454811590876	2346.362860920035	-3574.180254367277	472.3412344905442	2279.2075316036	-3586.672605137072	451.5016115903755	2399.83399703466	-3524.953239824105	201.3182946479354	2321.479284363114	-3432.398757829614	255.7254465455117	2307.362382337824	-3500.5676529116	311.2978961037617	2258.955508945302	-3416.389556424886	109.0863281114926	2270.547226122408	-3447.377662549428	102.2170466602144	2353.265036843703	-3568.741524002334	60.53220243028645	2291.725779627112	-3517.328769328081	51.80310227398377	2209.38616960464	-3351.069146951563	78.5613432755282	2319.656428022124	-3441.505138067328	740.8015382498868	2710.151378588398	
303	26.135	-3471.983664073985	1438.831683432169	2473.197699890398	-3503.69501507401	1399.907821318133	2630.312070541076	-3562.665429696352	1290.184274686093	2484.520464883135	-3434.203904127986	940.3042799225216	2614.542993697311	-3445.522927886212	929.6012665496343	2341.855788605818	-3253.825975581854	1001.963203963854	2525.097759811832	-3265.106758869167	1006.317566327975	2432.352304825128	-3374.843804871816	900.5831666423643	2684.690923841398	-3362.588921499763	886.0030790291535	2277.49254418809	-3565.923091142896	703.351567666394	2651.732962832188	-3412.762791646633	605.7564100060338	2651.721891006381	-3547.949304863084	503.1817735860121	2699.926380626233	-3565.083994568935	481.4691163754653	2571.942170221985	-3477.711994406844	308.9557345799279	2718.271986650005	-3515.092951901947	195.3090505998937	2673.105908637047	-3417.566304051023	215.7022739295248	2651.463189790384	-3423.267699954915	97.76646640013864	2705.742429073664	-3452.862046846352	92.56811212955107	2620.656351755666	-3571.196741033863	64.54664115257121	2676.986271282031	-3516.037175152115	51.12277743553643	2762.81462474512	-3355.882726269758	72.44515875949791	2650.659429820925	-3437.355522691957	566.3065177400163	2361.937902188165	-3442.426944219352	717.1519335447073	2268.683350956593	-3579.013140930561	691.6796407592624	2346.628878155447	-3572.031059804942	473.5072550400927	2279.785508491579	-3584.459176403145	452.5031955908568	2400.39513967459	-3524.197987282256	201.9624968403951	2321.648068248071	-3431.291955389681	255.8922978153531	2307.611161090552	-3499.125540481437	311.8832006661378	2259.293970237603	-3416.269053812505	109.1413930385075	2270.588546325258	-3447.259722131813	102.2370864274338	2353.281344273465	-3568.733180690934	60.54714564521292	2291.746727681059	-3517.325293511008	51.81412724424258	2209.417791613159	-3351.045447753886	78.59347525532721	2319.642029108527	-3441.591349904669	743.0262465553328	2710.203318335255	
304	26.14	-3471.07908841583	1442.502768305242	2473.335252415045	-3502.92890152602	1403.687535860114	2630.480132728779	-3562.08290592399	1294.179928940459	2484.637652863174	-3435.355615398196	943.5993117611217	2614.737632871012	-3446.591269455471	933.041534443902	2341.972486537044	-3254.752186885372	1004.827066210506	2525.302695304905	-3265.960124561656	1009.208178177567	2432.587876883346	-3376.055207749139	903.3447743580853	2684.729185344085	-3363.640080642469	888.900519264756	2277.889636497721	-3565.630152067585	704.3933541346832	2651.803901533722	-3411.608029848282	608.1173999122216	2651.463931923046	-3545.840769446704	504.2153041398511	2699.689626436747	-3563.028937525963	482.4169066784165	2571.650474055571	-3476.288172703201	309.349894846309	2718.128359194773	-3514.371455023148	195.8378266243618	2673.114411284209	-3416.752497028902	215.6802218245279	2651.401182880581	-3423.206903611219	97.74940659831381	2705.819347802768	-3452.812870228874	92.60913097194127	2620.696937247105	-3571.183401276374	64.55737257415349	2676.988339048947	-3516.040643929671	51.09453668871258	2762.813420535744	-3355.841437248949	72.44145678278095	2650.686182514563	-3435.9224206403	568.6886999312784	2362.58726832045	-3442.365280673092	719.4686767221565	2268.988940232712	-3578.679167131701	692.78606378932	2346.894602210712	-3569.868674067613	474.6657081365729	2280.358056447087	-3582.234734229077	453.4972384252647	2400.949351580431	-3523.436487311978	202.6073694654092	2321.811092865917	-3430.181062579899	256.0559010570026	2307.85631540749	-3497.673352064953	312.4665380397524	2259.627049797424	-3416.151476010269	109.2004177781949	2270.625960314895	-3447.137264114615	102.2556261253757	2353.296294148757	-3568.724123446719	60.56063775172285	2291.767719363873	-3517.321757093986	51.8247556306304	2209.447718091457	-3351.021694704182	78.62318755078894	2319.628825605436	-3441.680178795426	745.2227252114853	2710.249265111408	
